<?xml version="1.0" encoding="UTF-8" standalone="no"?>
<!DOCTYPE svg PUBLIC "-//W3C//DTD SVG 1.1//EN"
 "http://www.w3.org/Graphics/SVG/1.1/DTD/svg11.dtd">
<!-- Generated by graphviz version 2.50.0 (0)
 -->
<!-- Title: G Pages: 1 -->
<svg width="676pt" height="44pt"
 viewBox="0.00 0.00 675.85 44.00" xmlns="http://www.w3.org/2000/svg" xmlns:xlink="http://www.w3.org/1999/xlink">
<g id="graph0" class="graph" transform="scale(1 1) rotate(0) translate(4 40)">
<title>G</title>
<polygon fill="white" stroke="transparent" points="-4,4 -4,-40 671.85,-40 671.85,4 -4,4"/>
<!-- Dataset -->
<g id="node1" class="node">
<title>Dataset</title>
<ellipse fill="none" stroke="black" cx="46.8" cy="-18" rx="46.59" ry="18"/>
<text text-anchor="middle" x="46.8" y="-14.3" font-family="Times,serif" font-size="14.00">Dataset</text>
</g>
<!-- Dataloaders -->
<g id="node2" class="node">
<title>Dataloaders</title>
<ellipse fill="none" stroke="black" cx="196.54" cy="-18" rx="66.89" ry="18"/>
<text text-anchor="middle" x="196.54" y="-14.3" font-family="Times,serif" font-size="14.00">Dataloaders</text>
</g>
<!-- Dataset&#45;&gt;Dataloaders -->
<g id="edge1" class="edge">
<title>Dataset&#45;&gt;Dataloaders</title>
<path fill="none" stroke="black" d="M93.73,-18C101.89,-18 110.58,-18 119.32,-18"/>
<polygon fill="black" stroke="black" points="119.56,-21.5 129.56,-18 119.56,-14.5 119.56,-21.5"/>
</g>
<!-- Train -->
<g id="node3" class="node">
<title>Train</title>
<ellipse fill="none" stroke="black" cx="334.58" cy="-18" rx="35.19" ry="18"/>
<text text-anchor="middle" x="334.58" y="-14.3" font-family="Times,serif" font-size="14.00">Train</text>
</g>
<!-- Dataloaders&#45;&gt;Train -->
<g id="edge2" class="edge">
<title>Dataloaders&#45;&gt;Train</title>
<path fill="none" stroke="black" d="M263.56,-18C272.23,-18 280.93,-18 289.12,-18"/>
<polygon fill="black" stroke="black" points="289.17,-21.5 299.17,-18 289.17,-14.5 289.17,-21.5"/>
</g>
<!-- Predict_Item -->
<g id="node4" class="node">
<title>Predict_Item</title>
<ellipse fill="none" stroke="black" cx="475.87" cy="-18" rx="70.39" ry="18"/>
<text text-anchor="middle" x="475.87" y="-14.3" font-family="Times,serif" font-size="14.00">Predict_Item</text>
</g>
<!-- Train&#45;&gt;Predict_Item -->
<g id="edge3" class="edge">
<title>Train&#45;&gt;Predict_Item</title>
<path fill="none" stroke="black" d="M370.01,-18C377.85,-18 386.5,-18 395.37,-18"/>
<polygon fill="black" stroke="black" points="395.45,-21.5 405.45,-18 395.45,-14.5 395.45,-21.5"/>
</g>
<!-- Deploy -->
<g id="node5" class="node">
<title>Deploy</title>
<ellipse fill="none" stroke="black" cx="624.96" cy="-18" rx="42.79" ry="18"/>
<text text-anchor="middle" x="624.96" y="-14.3" font-family="Times,serif" font-size="14.00">Deploy</text>
</g>
<!-- Predict_Item&#45;&gt;Deploy -->
<g id="edge4" class="edge">
<title>Predict_Item&#45;&gt;Deploy</title>
<path fill="none" stroke="black" d="M546.11,-18C554.7,-18 563.37,-18 571.65,-18"/>
<polygon fill="black" stroke="black" points="571.89,-21.5 581.89,-18 571.89,-14.5 571.89,-21.5"/>
</g>
</g>
</svg>
